# xmcd
#
# Track frame offsets:
#	150
#	27822
#	48515
#	69302
#	88585
#	106400
#	125750
#	146342
#	167182
#	186160
#	204387
#	226862
#
# Disc length: 3312 seconds
#
# Revision: 0
# Processed by: cddbd v1.5.1PL0 Copyright (c) Steve Scherf et al.
# Submitted via: audiograbber 1.80
#
DISCID=a00cee0c
DTITLE=박정현 - Naturally - Lena Park 3
DYEAR=1900
DGENRE=
TTITLE0=아무말도, 아무것도...
TTITLE1=You mean everything to me
TTITLE2=10분전으로
TTITLE3=늘 푸른
TTITLE4=純情
TTITLE5=힘내!!!
TTITLE6=까만 일기장
TTITLE7=싫어
TTITLE8=거짓말처럼
TTITLE9=It's me
TTITLE10=Better now
TTITLE11=지금은 아무것도 아냐
EXTD=
EXTT0=
EXTT1=
EXTT2=
EXTT3=
EXTT4=
EXTT5=
EXTT6=
EXTT7=
EXTT8=
EXTT9=
EXTT10=
EXTT11=
PLAYORDER=
